<?xml version="1.0" encoding="utf-8"?> <!-- Generator: IcoMoon.io --> <!DOCTYPE svg PUBLIC "-//W3C//DTD SVG 1.1//EN" "http://www.w3.org/Graphics/SVG/1.1/DTD/svg11.dtd"> <svg fill="#868b86" xmlns:xlink="http://www.w3.org/1999/xlink" xmlns="http://www.w3.org/2000/svg" viewBox="0 0 192 192" height="192" width="192"><path d="M 88.00,88.00A16.00,16.00 360.00 1 1 120.00,88A16.00,16.00 360.00 1 1 88.00,88zM 104.00,40.00c-39.76,0.00-72.00,48.00-72.00,48.00s 32.24,48.00, 72.00,48.00c 39.752,0.00, 72.00-48.00, 72.00-48.00S 143.752,40.00, 104.00,40.00z M 104.00,118.00c-16.56,0.00-30.016-13.448-30.016-30.00 c0.00-16.56, 13.456-30.00, 30.016-30.00c 16.544,0.00, 30.016,13.44, 30.016,30.00C 134.016,104.552, 120.544,118.00, 104.00,118.00z"></path></svg>