<?xml version="1.0" encoding="utf-8"?> <!-- Generator: IcoMoon.io --> <!DOCTYPE svg PUBLIC "-//W3C//DTD SVG 1.1//EN" "http://www.w3.org/Graphics/SVG/1.1/DTD/svg11.dtd"> <svg fill="#3a3c37" xmlns:xlink="http://www.w3.org/1999/xlink" xmlns="http://www.w3.org/2000/svg" viewBox="0 0 192 192" height="192" width="192"><path d="M 164.376,114.60c-3.352-9.824-9.144-19.336-16.76-27.336c-7.608-8.024-16.808-14.632-26.696-19.832 C 110.936,62.272, 100.56,58.232, 88.352,56.00L 88.00,56.00 L 88.00,24.00 l-72.00,56.00l 72.00,56.00l0.00-32.088 c 6.416-1.856, 14.456-2.496, 22.144-2.152 c 7.904,0.408, 15.832,1.888, 23.328,4.864c 7.488,2.976, 14.496,7.584, 20.496,13.928C 159.936,126.944, 164.656,135.04, 168.00,144.00 C 168.608,134.496, 167.72,124.472, 164.376,114.60z"></path></svg>